<svg width="12" height="11" viewBox="0 0 12 11" fill="none" xmlns="http://www.w3.org/2000/svg">
<path d="M9.42857 6.88908V8.99368C9.42857 10.0394 8.56473 10.8878 7.5 10.8878H1.92857C0.863839 10.8878 0 10.0394 0 8.99368V3.52174C0 2.47602 0.863839 1.6276 1.92857 1.6276H6.64286C6.76339 1.6276 6.85714 1.71968 6.85714 1.83806V2.25898C6.85714 2.37736 6.76339 2.46944 6.64286 2.46944H1.92857C1.33929 2.46944 0.857143 2.94297 0.857143 3.52174V8.99368C0.857143 9.57244 1.33929 10.046 1.92857 10.046H7.5C8.08929 10.046 8.57143 9.57244 8.57143 8.99368V6.88908C8.57143 6.7707 8.66518 6.67862 8.78571 6.67862H9.21429C9.33482 6.67862 9.42857 6.7707 9.42857 6.88908ZM12 1.20668V4.57403C12 4.80422 11.8058 4.99495 11.5714 4.99495C11.4576 4.99495 11.3504 4.94891 11.2701 4.86999L10.0915 3.71246L5.72545 8.00057C5.68527 8.04003 5.625 8.06634 5.57143 8.06634C5.51786 8.06634 5.45759 8.04003 5.41741 8.00057L4.65402 7.25081C4.61384 7.21135 4.58705 7.15216 4.58705 7.09954C4.58705 7.04693 4.61384 6.98774 4.65402 6.94827L9.02009 2.66017L7.84152 1.50264C7.76116 1.42372 7.71429 1.31849 7.71429 1.20668C7.71429 0.976495 7.90848 0.785767 8.14286 0.785767H11.5714C11.8058 0.785767 12 0.976495 12 1.20668Z" fill="#4E5F8A"/>
</svg>
