<?xml version="1.0" standalone="no"?>
<!DOCTYPE svg PUBLIC "-//W3C//DTD SVG 20010904//EN"
 "http://www.w3.org/TR/2001/REC-SVG-20010904/DTD/svg10.dtd">
<svg version="1.0" xmlns="http://www.w3.org/2000/svg"
 width="260.000000pt" height="260.000000pt" viewBox="0 0 260.000000 260.000000"
 preserveAspectRatio="xMidYMid meet">
<metadata>
Created by potrace 1.11, written by Peter Selinger 2001-2013
</metadata>
<g transform="translate(0.000000,260.000000) scale(0.100000,-0.100000)"
fill="#000000" stroke="none">
<path d="M1075 2539 c-161 -31 -304 -86 -435 -166 -273 -168 -480 -448 -559
-758 -32 -127 -33 -132 -36 -290 -3 -143 4 -202 41 -364 10 -45 74 -202 105
-259 126 -229 327 -423 549 -529 41 -19 86 -41 100 -48 25 -13 191 -58 260
-70 61 -11 312 -14 375 -4 373 58 686 261 890 577 63 99 128 245 150 338 2 10
9 37 14 59 21 84 23 104 26 250 4 213 -31 381 -116 563 -72 153 -226 348 -349
442 -25 19 -47 37 -50 40 -14 16 -154 97 -216 126 -225 102 -516 139 -749 93z"/>
</g>
</svg>
