<svg width="24" height="24" viewBox="0 0 24 24" fill="none" xmlns="http://www.w3.org/2000/svg">
<path fill-rule="evenodd" clip-rule="evenodd" d="M12 24C18.6274 24 24 18.6274 24 12C24 5.37258 18.6274 0 12 0C5.37258 0 0 5.37258 0 12C0 18.6274 5.37258 24 12 24ZM6.66055 8C6.46267 8 6.38497 8.25665 6.54961 8.36641L12 12L17.4504 8.36641C17.615 8.25665 17.5373 8 17.3394 8H6.66055ZM6 10.3737C6 10.214 6.17803 10.1187 6.31094 10.2073L12 14L17.6891 10.2073C17.822 10.1187 18 10.214 18 10.3737V15.8C18 15.9105 17.9105 16 17.8 16H6.2C6.08954 16 6 15.9105 6 15.8V10.3737Z" fill="currentColor"/>
</svg>
