<svg width="24" height="24" viewBox="0 0 24 24" fill="none" xmlns="http://www.w3.org/2000/svg">
<path fill-rule="evenodd" clip-rule="evenodd" d="M12 24C18.6274 24 24 18.6274 24 12C24 5.37258 18.6274 0 12 0C5.37258 0 0 5.37258 0 12C0 18.6274 5.37258 24 12 24ZM7.25 8.55C7.35 8.65 7.4 8.8 7.4 8.95V14.2C7.45 14.4 7.4 14.6 7.25 14.75L6 16.3V16.5H9.55V16.35L8.3 14.8C8.2 14.65 8.1 14.45 8.15 14.25V9.65L11.3 16.5H11.65L14.35 9.65V15.05C14.35 15.1269 14.35 15.1644 14.3365 15.1961C14.3237 15.2263 14.2987 15.2513 14.25 15.3L13.3 16.25V16.45H18V16.25L17.05 15.35C16.95 15.3 16.95 15.2 16.95 15.1V8.35C16.95 8.25 16.95 8.15 17.05 8.1L18 7.2V7H14.7L12.35 12.9L9.65 7H6.15V7.2L7.25 8.55Z" fill="currentColor"/>
</svg>
