<svg width="24" height="24" viewBox="0 0 24 24" fill="none" xmlns="http://www.w3.org/2000/svg">
<path fill-rule="evenodd" clip-rule="evenodd" d="M12 24C18.6274 24 24 18.6274 24 12C24 5.37258 18.6274 0 12 0C5.37258 0 0 5.37258 0 12C0 18.6274 5.37258 24 12 24ZM17.4291 9.81988C17.4291 13.1516 14.8022 17 10.0015 17C8.53018 17 7.15564 16.5817 6 15.873C6.20364 15.8976 6.41236 15.9075 6.62109 15.9075C7.84291 15.9075 8.968 15.5039 9.864 14.8248C8.72364 14.8051 7.75636 14.0768 7.42545 13.0728C7.58327 13.1024 7.74618 13.1171 7.91418 13.1171C8.15345 13.1171 8.38255 13.0876 8.60145 13.0285C7.41018 12.7972 6.50909 11.7736 6.50909 10.5531V10.5187C6.86545 10.7057 7.26764 10.8189 7.69527 10.8337C6.99782 10.3809 6.53455 9.60827 6.53455 8.73228C6.53455 8.26968 6.66182 7.83661 6.88582 7.4626C8.17382 8.98819 10.0982 9.99213 12.2669 10.1004C12.2262 9.91339 12.2007 9.72146 12.2007 9.52461C12.2007 8.13189 13.3716 7 14.8124 7C15.5607 7 16.2429 7.30512 16.7164 7.79724C17.312 7.68406 17.872 7.47736 18.376 7.18701C18.1775 7.77756 17.7651 8.27461 17.2255 8.58465C17.7549 8.52067 18.2589 8.3878 18.7273 8.18602C18.376 8.69291 17.9331 9.14075 17.424 9.49508C17.4291 9.60335 17.4291 9.71161 17.4291 9.81988Z" fill="currentColor"/>
</svg>
